<svg width="52" height="51" viewBox="0 0 52 51" fill="none" xmlns="http://www.w3.org/2000/svg">
<mask id="path-1-inside-1" fill="white">
<path fill-rule="evenodd" clip-rule="evenodd" d="M1.01979 22.3382C-0.33993 23.857 -0.339929 26.1554 1.01979 27.6743L19.8183 48.6725C22.267 51.4076 26.7985 49.6755 26.7985 46.0044V36.4529H52.0008V12.5643H26.7985V4.00804C26.7985 0.336934 22.267 -1.39515 19.8183 1.34002L1.01979 22.3382Z"/>
</mask>
<g filter="url(#filter0_i)">
<path fill-rule="evenodd" clip-rule="evenodd" d="M1.01979 22.3382C-0.33993 23.857 -0.339929 26.1554 1.01979 27.6743L19.8183 48.6725C22.267 51.4076 26.7985 49.6755 26.7985 46.0044V36.4529H52.0008V12.5643H26.7985V4.00804C26.7985 0.336934 22.267 -1.39515 19.8183 1.34002L1.01979 22.3382Z" fill="#EAFCB0"/>
</g>
<path d="M1.01979 27.6743L-0.470318 29.0083H-0.470317L1.01979 27.6743ZM1.01979 22.3382L-0.470318 21.0042H-0.470319L1.01979 22.3382ZM19.8183 48.6725L21.3084 47.3385L19.8183 48.6725ZM26.7985 36.4529V34.4529H24.7985V36.4529H26.7985ZM52.0008 36.4529V38.4529H54.0008V36.4529H52.0008ZM52.0008 12.5643H54.0008V10.5643H52.0008V12.5643ZM26.7985 12.5643H24.7985V14.5643H26.7985V12.5643ZM19.8183 1.34002L21.3084 2.67403L19.8183 1.34002ZM2.50989 26.3403C1.83004 25.5808 1.83004 24.4316 2.50989 23.6722L-0.470319 21.0042C-2.50989 23.2824 -2.50989 26.73 -0.470318 29.0083L2.50989 26.3403ZM21.3084 47.3385L2.50989 26.3403L-0.470317 29.0083L18.3282 50.0065L21.3084 47.3385ZM24.7985 46.0044C24.7985 47.84 22.5328 48.706 21.3084 47.3385L18.3282 50.0065C22.0012 54.1092 28.7985 51.5111 28.7985 46.0044H24.7985ZM24.7985 36.4529V46.0044H28.7985V36.4529H24.7985ZM52.0008 34.4529H26.7985V38.4529H52.0008V34.4529ZM50.0008 12.5643V36.4529H54.0008V12.5643H50.0008ZM26.7985 14.5643H52.0008V10.5643H26.7985V14.5643ZM24.7985 4.00804V12.5643H28.7985V4.00804H24.7985ZM21.3084 2.67403C22.5328 1.30645 24.7985 2.17249 24.7985 4.00804H28.7985C28.7985 -1.49862 22.0012 -4.09674 18.3282 0.00601145L21.3084 2.67403ZM2.50989 23.6722L21.3084 2.67403L18.3282 0.00601138L-0.470318 21.0042L2.50989 23.6722Z" fill="#552A16" mask="url(#path-1-inside-1)"/>
<defs>
<filter id="filter0_i" x="0" y="0" width="52.0008" height="50.0125" filterUnits="userSpaceOnUse" color-interpolation-filters="sRGB">
<feFlood flood-opacity="0" result="BackgroundImageFix"/>
<feBlend mode="normal" in="SourceGraphic" in2="BackgroundImageFix" result="shape"/>
<feColorMatrix in="SourceAlpha" type="matrix" values="0 0 0 0 0 0 0 0 0 0 0 0 0 0 0 0 0 0 127 0" result="hardAlpha"/>
<feOffset dy="-6"/>
<feComposite in2="hardAlpha" operator="arithmetic" k2="-1" k3="1"/>
<feColorMatrix type="matrix" values="0 0 0 0 0.92549 0 0 0 0 0.756863 0 0 0 0 0.482353 0 0 0 1 0"/>
<feBlend mode="normal" in2="shape" result="effect1_innerShadow"/>
</filter>
</defs>
</svg>
