<svg width="72" height="20" viewBox="0 0 72 20" fill="none" xmlns="http://www.w3.org/2000/svg">
<rect width="72" height="20" rx="2" fill="#5E4771"/>
<path d="M26.22 10.752C26.22 11.592 26.044 12.332 25.692 12.972C25.34 13.612 24.828 14.112 24.156 14.472C23.492 14.824 22.7 15 21.78 15H18.768V6.528H21.78C22.7 6.528 23.492 6.704 24.156 7.056C24.828 7.4 25.34 7.892 25.692 8.532C26.044 9.164 26.22 9.904 26.22 10.752ZM21.636 13.488C22.548 13.488 23.252 13.248 23.748 12.768C24.252 12.288 24.504 11.616 24.504 10.752C24.504 9.88 24.252 9.204 23.748 8.724C23.252 8.244 22.548 8.004 21.636 8.004H20.46V13.488H21.636ZM30.0908 8.268C30.6508 8.268 31.1308 8.4 31.5308 8.664C31.9308 8.928 32.2148 9.284 32.3828 9.732V8.352H34.0628V15H32.3828V13.608C32.2148 14.056 31.9308 14.416 31.5308 14.688C31.1308 14.952 30.6508 15.084 30.0908 15.084C29.5308 15.084 29.0268 14.948 28.5788 14.676C28.1308 14.404 27.7788 14.012 27.5228 13.5C27.2748 12.98 27.1508 12.372 27.1508 11.676C27.1508 10.98 27.2748 10.376 27.5228 9.864C27.7788 9.344 28.1308 8.948 28.5788 8.676C29.0268 8.404 29.5308 8.268 30.0908 8.268ZM30.6188 9.744C30.0908 9.744 29.6668 9.916 29.3468 10.26C29.0268 10.604 28.8668 11.076 28.8668 11.676C28.8668 12.276 29.0268 12.748 29.3468 13.092C29.6668 13.428 30.0908 13.596 30.6188 13.596C31.1308 13.596 31.5508 13.424 31.8788 13.08C32.2148 12.728 32.3828 12.26 32.3828 11.676C32.3828 11.084 32.2148 10.616 31.8788 10.272C31.5508 9.92 31.1308 9.744 30.6188 9.744ZM37.2881 9.624C37.5361 9.2 37.8641 8.868 38.2721 8.628C38.6801 8.38 39.1361 8.256 39.6401 8.256V10.068H39.1481C37.9081 10.068 37.2881 10.644 37.2881 11.796V15H35.5961V8.352H37.2881V9.624ZM44.4646 15L42.2686 12.096V15H40.5766V6.12H42.2686V11.112L44.4526 8.352H46.4566L43.6606 11.664L46.5286 15H44.4646Z" fill="white"/>
<path d="M0 5.60585V7.26416C1.2577 7.47035 2.62233 7.83691 3.7423 8.48543C3.7423 8.48543 2.43748 9.31194 0 9.82477V11.6434C4.82602 11.5412 7.48641 8.36912 7.48641 8.36912C4.57412 5.19524 0 5.60585 0 5.60585Z" fill="#98919C"/>
<path d="M0 0C0 0 7.84886 0.172705 10 6.35833C10 6.35833 7.11852 2.90836 0 3V0Z" fill="#98919C"/>
<path d="M5.16479 2.48307L6.57291 6.35834L7.90673 4.09909C7.90673 4.09909 7.61496 2.35971 5.16479 2.48307Z" fill="#98919C"/>
<path d="M0 17.9999C0 17.9999 7.84886 17.8272 10 11.6416C10 11.6416 7.11852 15.0916 0 15V17.9999Z" fill="#98919C"/>
<path d="M5.16479 15.5169L6.57291 11.6416L7.90673 13.9009C7.90673 13.9009 7.61496 15.6402 5.16479 15.5169Z" fill="#98919C"/>
</svg>
