<svg width="16" height="16" viewBox="0 0 16 16" fill="none" xmlns="http://www.w3.org/2000/svg">
<g clip-path="url(#clip0)">
<path d="M13.25 1.58325H2.75C1.78517 1.58325 1 2.36842 1 3.33325V7.04909C1 8.21692 1.95025 9.16659 3.11808 9.16659C3.744 9.16659 4.30167 8.88834 4.68958 8.45492C5.10142 8.89067 5.68067 9.16659 6.32642 9.16659C6.99317 9.16659 7.58642 8.87084 8 8.41C8.41358 8.87084 9.00683 9.16659 9.67358 9.16659C10.3193 9.16659 10.8986 8.89067 11.3104 8.45492C11.6983 8.88834 12.256 9.16659 12.8819 9.16659C14.0497 9.16659 15 8.21692 15 7.04909V3.33325C15 2.36842 14.2148 1.58325 13.25 1.58325ZM4.06892 6.90909V7.0485C4.06892 7.57292 3.6425 7.99934 3.11808 7.99934C2.59308 7.99992 2.16667 7.5735 2.16667 7.04909V5.08325H4.06892V6.90909ZM7.41667 6.90909C7.41667 7.5105 6.92725 7.99992 6.32642 7.99992C5.725 7.99992 5.23558 7.5105 5.23558 6.90909V5.08325H7.41667V6.90909ZM10.7644 6.90909C10.7644 7.5105 10.275 7.99992 9.67358 7.99992C9.07275 7.99992 8.58333 7.5105 8.58333 6.90909V5.08325H10.7644V6.90909ZM13.8333 7.04909C13.8333 7.5735 13.4069 7.99992 12.8819 7.99992C12.3581 7.99992 11.9311 7.5735 11.9311 7.04909V6.90909V5.08325H13.8333V7.04909Z" fill="#6A748E"/>
<path d="M13.8333 10.1916V12.6667C13.8333 12.9887 13.5714 13.25 13.25 13.25H2.75C2.42858 13.25 2.16667 12.9887 2.16667 12.6667V10.1916C1.73325 10.0598 1.33775 9.84101 1 9.55518V12.6667C1 13.6315 1.78517 14.4167 2.75 14.4167H13.25C14.2148 14.4167 15 13.6315 15 12.6667V9.55518C14.6622 9.84101 14.2667 10.0603 13.8333 10.1916Z" fill="#6A748E"/>
</g>
<defs>
<clipPath id="clip0">
<rect width="14" height="14" fill="white" transform="translate(1 1)"/>
</clipPath>
</defs>
</svg>
