<svg width="132" height="132" viewBox="0 0 132 132" fill="none" xmlns="http://www.w3.org/2000/svg">
<g filter="url(#filter0_b)">
<circle cx="66" cy="66" r="66" fill="#0F0F0F" fill-opacity="0.09"/>
</g>
<path d="M90.5264 52.3422C89.2757 49.3842 85.466 42.5677 75.4089 37.0833C74.8024 36.7524 74.5789 35.9925 74.9098 35.3861C75.2407 34.7796 76.0006 34.5561 76.6071 34.887C82.8314 38.0688 88.0331 42.9402 91.6158 48.9427C91.4832 44.9466 90.5815 39.0945 86.8005 35.4186C82.9633 31.6864 76.9598 30.9797 72.9599 30.9797C71.9018 30.9797 70.985 31.0298 70.2846 31.086C70.1526 31.0842 70.0257 31.1368 69.9336 31.2314C69.8416 31.3261 69.7926 31.4544 69.7981 31.5863C69.623 34.9433 69.7406 43.2556 74.5921 47.9709C79.1823 52.4335 86.8768 52.5686 90.5264 52.3422Z" fill="url(#paint0_linear)"/>
<path d="M99.1259 59.359C98.0474 56.7927 96.0988 54.6887 93.6227 53.4167C93.4577 53.6778 93.2516 53.9105 93.0124 54.1059L92.9648 54.1459C92.7395 54.3242 92.4892 54.4683 92.2219 54.5737C92.9398 55.9877 93.5396 57.4585 94.0154 58.9712C94.4992 60.1313 94.5528 61.426 94.1668 62.6221C93.9075 63.1239 93.4482 63.4928 92.9023 63.6377C90.9837 64.1755 87.9481 62.3507 87.8193 62.2719L87.319 61.9617C86.7485 61.5807 86.1483 61.2461 85.5242 60.9611C81.0216 58.8662 75.8148 60.1044 72.0839 64.0817C72.1915 65.6096 72.0134 67.1442 71.5586 68.6068C71.9876 68.6494 72.4854 68.7194 73.0057 68.8045C73.9998 67.9877 75.0826 67.2854 76.2338 66.7107C77.6608 65.967 79.2965 65.7247 80.8778 66.0228C82.048 66.3428 83.1383 66.9044 84.0784 67.6713C84.3548 67.8677 84.6287 68.064 84.9089 68.2441C85.8378 68.8659 86.8375 69.3748 87.8869 69.76C93.3901 71.6436 97.5175 69.0959 99.0184 65.9278C99.9788 63.8513 100.018 61.4658 99.1259 59.359Z" fill="url(#paint1_linear)"/>
<path fill-rule="evenodd" clip-rule="evenodd" d="M68.633 69.1933C68.4396 69.5807 68.4604 70.0406 68.688 70.409C68.9153 70.7775 69.3169 71.0022 69.7499 71.0031C71.9185 71.0275 74.065 71.4431 76.0861 72.2301C75.6796 79.4855 73.7885 91.5964 65.9652 97.2684C56.5522 104.086 41.0369 99.935 34.7982 97.8325C33.2678 97.3245 32.233 95.8955 32.228 94.2829C32.1842 87.7028 33.091 71.6622 42.4815 64.862C50.3023 59.1975 62.4456 61.1736 69.4497 63.0347C69.8426 65.1221 69.5564 67.2805 68.633 69.1933Z" fill="url(#paint2_linear)"/>
<defs>
<filter id="filter0_b" x="-13" y="-13" width="158" height="158" filterUnits="userSpaceOnUse" color-interpolation-filters="sRGB">
<feFlood flood-opacity="0" result="BackgroundImageFix"/>
<feGaussianBlur in="BackgroundImage" stdDeviation="6.5"/>
<feComposite in2="SourceAlpha" operator="in" result="effect1_backgroundBlur"/>
<feBlend mode="normal" in="SourceGraphic" in2="effect1_backgroundBlur" result="shape"/>
</filter>
<linearGradient id="paint0_linear" x1="72.1699" y1="34.9264" x2="87.5695" y2="50.1012" gradientUnits="userSpaceOnUse">
<stop stop-color="#F0FF95"/>
<stop offset="0.6075" stop-color="#86E284"/>
<stop offset="1" stop-color="#4EB54C"/>
</linearGradient>
<linearGradient id="paint1_linear" x1="67.6802" y1="61.9101" x2="89.2613" y2="61.9101" gradientUnits="userSpaceOnUse">
<stop stop-color="#CDBFBA"/>
<stop offset="1" stop-color="#766E6E"/>
</linearGradient>
<linearGradient id="paint2_linear" x1="38.1776" y1="69.5173" x2="64.883" y2="93.4508" gradientUnits="userSpaceOnUse">
<stop stop-color="#F0FF95"/>
<stop offset="0.6075" stop-color="#86E284"/>
<stop offset="1" stop-color="#4EB54C"/>
</linearGradient>
</defs>
</svg>
