<svg width="16" height="16" viewBox="0 0 16 16" fill="none" xmlns="http://www.w3.org/2000/svg">
<path d="M12.5822 6.13252C12.4809 5.92984 12.563 5.68351 12.7657 5.58217L14.4063 4.76186C14.609 4.66093 14.8553 4.74264 14.9566 4.94531C15.058 5.14798 14.9759 5.39432 14.7732 5.49565L13.1326 6.31596C12.9279 6.41765 12.6831 6.33363 12.5822 6.13252Z" fill="#6A748E"/>
<path d="M14.4063 10.4175L12.7657 9.59716C12.563 9.49583 12.4809 9.24949 12.5822 9.04682C12.6844 8.84455 12.9299 8.76323 13.1326 8.86337L14.7732 9.68368C14.9759 9.78501 15.058 10.0314 14.9566 10.234C14.8557 10.4353 14.6108 10.5191 14.4063 10.4175Z" fill="#6A748E"/>
<path d="M14.5896 7.99988H12.949C12.7223 7.99988 12.5388 7.81643 12.5388 7.58972C12.5388 7.36301 12.7223 7.17957 12.949 7.17957H14.5896C14.8163 7.17957 14.9998 7.36301 14.9998 7.58972C14.9998 7.81643 14.8163 7.99988 14.5896 7.99988Z" fill="#6A748E"/>
<path d="M11.3086 2.66797C11.0819 2.66797 10.8984 2.85142 10.8984 3.07812V3.66377C9.41561 4.61307 7.66903 5.2268 5.92188 5.43814V9.74158C7.66903 9.95292 9.41561 10.5666 10.8984 11.5159V12.1016C10.8984 12.3283 11.0819 12.5117 11.3086 12.5117C11.5353 12.5117 11.7188 12.3283 11.7188 12.1016V3.07812C11.7188 2.85142 11.5353 2.66797 11.3086 2.66797Z" fill="#6A748E"/>
<path d="M4.97559 12.5854C4.59792 11.9056 4.27168 11.1071 4.52297 10.4044L2.49743 10.1789C2.34512 10.162 2.19848 10.1292 2.05583 10.0878C1.75431 10.961 1.7816 11.8201 1.80768 12.4628C1.81411 12.6274 1.82051 12.7812 1.82051 12.9218C1.82051 13.1485 2.00396 13.332 2.23066 13.332H4.6916C4.83379 13.332 4.96597 13.2583 5.04048 13.1373C5.11537 13.0164 5.12218 12.8654 5.0585 12.7384L4.97559 12.5854Z" fill="#6A748E"/>
<path d="M1 7.58979C1 8.50063 1.68253 9.26324 2.58774 9.36379L5.10156 9.64332V5.53625L2.58774 5.81579C1.68253 5.91633 1 6.67894 1 7.58979Z" fill="#6A748E"/>
</svg>
